<svg version="1.1" viewBox="0 0 1096 956" width="50px" height="50px" xmlns="http://www.w3.org/2000/svg" transform="rotate(0) scale(1, 1)">
<path transform="translate(214,64)" d="m0 0 5 4 14 19 13 16 9 10 7 8 8 8 7 8 25 25 8 7 10 9 12 11 14 12 11 9 15 13 11 9 14 12 14 11 18 14 16 13 12 9 12 10 10 8 18 14 13 10 16 13 11 9 16 13 11 10 11 9 13 11 14 13 8 7 15 13 15 14 21 21 7 8 14 15 9 11 11 13 12 16 12 18 12 21 9 17 10 26 6 22 5 25 1 9v39l-3 20-6 23-5 13-8 16-7 11-11 16-10 11-7 8-13 12-16 12-15 10-19 11-40 14-20 4-20 2h-35l-24-2-21-5-21-7-25-12-15-9-19-14-8-7-11-10-7-8-11-13-12-18-12-23-6-17-6-20-3-25-1-18 3-25 3-16 9-31 8-20 9-19 14-24 7-11 14-19 13-17 9-10 7-9 12-12 7-8 3-1 2-4 9-9 8-7 9-8h2l2-7-8-7-14-10-13-10-25-20-18-14-16-12-13-11-14-11-11-9-15-13-6-4-3-1-4 16-11 40-11 37-23 77-12 41-14 46-12 41-12 39-18 60-14 47-7 24-13 44-17 57-5 15-2 4-2 1h-118l-1-3 10-19 10-15 10-18 9-17 13-30 9-24 16-49 10-33 13-44 12-39 11-35 8-26 15-49 17-56 13-44 7-21 9-31 7-22 13-41 9-29 2-11-4-2-10-9-8-7-28-28-10-13-7-14-4-13-2-13v-12l3-16 4-11 7-13 10-13 8-6zm335 420-8 7-12 13-31 31-7 8-12 14-14 19-7 10-11 17-11 23-8 20-4 15-2 17v15l2 16 7 19 7 13 11 15 16 16 18 12 14 7 19 6 16 3 11 1h21l14-2 27-8 15-8 17-11 12-11 8-8 9-13 8-14 4-12 3-14 1-8v-9l-2-16-5-22-5-15-12-25-14-22-12-16-8-10-10-11-7-8-16-17-26-26-11-9z" fill="#f59e0b"/>
<path transform="translate(889,64)" d="m0 0 6 4 10 11 8 13 6 12 3 10 1 7v17l-3 18-5 12-9 13-14 15-13 13-8 7-13 12-5 5-3 4 3 12 14 43 16 54 11 35 19 63 15 48 12 39 21 69 14 47 9 28 8 27 10 32 8 26 14 36 11 24 11 21 13 22 11 18 2 5v5l-119-1-3-3-9-29-13-47-14-46-10-32-9-31-15-51-15-49-9-30-24-81-9-30-14-46-14-48-14-47-4-15v-3l-10 5-10 9-11 9-14 12-28 22-16 13-11 8-15 12-8 5-4-1-8-6-12-11-14-12-10-9-13-10-4-5-1-6 7-7 12-9 36-28 28-22 14-12 28-22 16-13 12-11 13-11 14-12 12-11 8-7 10-9 16-16h2l2-4 24-24 7-8 12-13 13-17 8-11z" fill="#f59e0b"/>
<path transform="translate(850,243)" d="m0 0 2 3 15 46 16 54 11 35 19 63 15 48 12 39 21 69 14 47 9 28 8 27 10 32 8 26 14 36 11 24 11 21 13 22 11 18 2 5v5l-119-1-3-3-9-29-13-47-14-46-10-32-9-31-15-51-15-49-9-30-24-81-9-30-14-46-14-48-14-47-4-15v-3l-3-1h4l9 29 14 47 8 26 9 31 9 30 8 27 9 30 6 19 6 21 6 19 6 21 15 50 8 27 7 22 3 12 5 15 4 15 19 63 13 44 10 32 2 6 40 1h76l-6-11-11-18-10-18-12-23-10-21-11-29-12-36-24-79-19-62-23-76-17-55-14-46-22-72-18-59-11-36z" fill="#48cae400"/>
<path transform="translate(317,329)" d="m0 0 1 4-10 35-19 64-18 60-9 31-13 43-16 54-13 42-16 54-14 46-8 29-27 90-4 9-2 1h-118l-1-3 2-2v2h109l8-1 11-33 14-47 33-110 12-41 7-23 45-150 32-108 9-29z" fill="#00b4d800"/>
<path transform="translate(370,560)" d="m0 0 1 2-15 30-11 31-6 26-3 19v32l4 26 5 18 8 20 9 17 5 9 8 11 9 11 9 10 8 8 11 9 13 10 20 12 21 10 27 9 23 5 13 2v1h-9l-16-2-21-6-20-7-24-12-15-10-18-13-8-8-8-7-7-8-11-13-12-18-12-23-6-17-6-20-3-25-1-18 3-25 3-16 9-31 8-20 9-19z" fill="#48cae400"/>
<path transform="translate(889,64)" d="m0 0 2 2-5 5-11 13-11 14-13 15-12 12-1 2h-2l-2 4-28 28h-2v2l-8 7-13 13-8 7-14 12-11 10-11 9-13 11-11 9-5 4h-2v2l-14 11-9 7-17 14-17 13-15 12-28 22-13 10-5 4-2-1 7-7 12-9 36-28 28-22 14-12 28-22 16-13 12-11 13-11 14-12 12-11 8-7 10-9 16-16h2l2-4 24-24 7-8 12-13 13-17 8-11z" fill="#48cae400"/>
<path transform="translate(460,581)" d="m0 0 1 2-9 14-8 14-10 22-7 20-3 15-1 10v15l2 16 7 19 7 13 11 15 15 15 18 12 14 7 19 6 16 3 11 1h21l14-2 27-8 15-8 14-9 2 1-9 7-12 7-19 8-21 6-15 2h-15l-21-3-24-7-17-8-11-7-11-9-9-8-9-11-7-10-8-16-5-13-3-16v-17l3-21 6-20 9-21 11-20 8-12z" fill="#00b4d800"/>
<path transform="translate(302,163)" d="m0 0 4 2 16 15 8 7 10 9 11 9 15 13 11 9 15 13 10 8 18 14 14 11 15 12 9 7 16 13 14 11 18 14 14 11 11 9 17 14 11 9 4 5-4-2-13-11-10-8-14-11-16-13-17-13-17-14-14-11-18-14-14-11-16-13-10-8-11-9-10-8-13-11-11-9-10-9-8-7-11-10-8-7-13-12z" fill="#00b4d800"/>
<path transform="translate(214,64)" d="m0 0 5 4 14 19 9 11-1 2-9-10-13-17-5-6-7 6-10 13-8 13-5 15-1 7v21l4 16 8 16 10 13 36 36 8 7 6 5-1 10-5 15-1-4 4-14 1-7-4-2-10-9-8-7-28-28-10-13-7-14-4-13-2-13v-12l3-16 4-11 7-13 10-13 8-6z" fill="#48cae400"/>
<path transform="translate(550,482)" d="m0 0 5 2 16 15 8 7 22 22 7 8 9 10 18 22 12 17 7 11 6 10 12 25 6 18 4 16 1 8v26l-4 15h-1l1-10 2-12v-9l-2-16-5-22-5-15-12-25-14-22-12-16-8-10-10-11-7-8-16-17-25-25-11-9-5-2-1-2z" fill="#00b4d800"/>
<path transform="translate(773,300)" d="m0 0 2 1-3 3-11 8-11 10-11 9-17 14-13 10-16 13-16 12-15 12-8 5-3-1 5-4 12-9 42-33 11-9h2v-2l12-9 6-5h2v-2l20-16z" fill="#2a9d8f00"/>
<path transform="translate(682,491)" d="m0 0 6 5 9 11 11 14 11 15 13 21 13 24 8 19 7 21 4 17v5l-2-4-7-25-9-24-9-19-12-21-15-22-9-12-18-22z" fill="#48cae400"/>
<path transform="translate(341,311)" d="m0 0 4 2 28 22 12 10 42 33 25 20 9 7 6 5h-3l-13-10-28-22-15-12-19-14-14-12-14-11-11-9-9-8z" fill="#48cae400"/>
<path transform="translate(891,66)" d="m0 0 4 2 10 11 8 13 6 12 3 10 1 7v17l-3 18-5 12-9 13-14 15-13 13-2-1 22-22 10-14 8-16 3-11 1-8v-11l-2-12-5-14-9-16-11-13-3-3z" fill="#48cae400"/>
<path transform="translate(763,730)" d="m0 0h1l-1 9-7 21-8 16-8 13-11 16-10 11-7 8-4 4h-2l1-3 6-5 8-10h2l2-4 10-14 11-18 10-22z" fill="#48cae400"/>
<path transform="translate(720,809)" d="m0 0 2 1-9 11-6 5-3 5-10 9-17 12-7 3-8 5-3-1 18-11 16-13 14-12 9-10h2z" fill="#25454f00"/>
<path transform="translate(474,435)" d="m0 0v3l-10 9-24 24-7 8-7 7-9 11-12 14v-3l8-10 11-13 7-8 9-9 7-8 3-1 2-4 9-9 8-7z" fill="#0077b600"/>
<path transform="translate(1067,882)" d="m0 0 3 4v2l-17 1h-63l-36-1-1-5 4 2 7 1 36 1h68z" fill="#e76f5100"/>
<path transform="translate(619,427)" d="m0 0 4 2 17 16 21 21 7 8 6 6-1 2-15-15-7-8-11-11-8-7-13-13z" fill="#00b4d800"/>
<path transform="translate(899,183)" d="m0 0 2 1-7 8-16 16-7 8-13 12-5 2 6-7 15-14 5-6 8-7 11-11z" fill="#26465300"/>
<path transform="translate(52,851)" d="m0 0 1 2-14 25-6 8-1-2 8-15 10-15z" fill="#48cae400"/>
<path transform="translate(438,471)" d="m0 0v3l-12 12-9 11-12 14v-3l8-10 12-14z" fill="#00b4d800"/>
<path transform="translate(678,375)" d="m0 0 3 2-14 11-13 9-3-1 5-4 12-9z" fill="#023e8a00"/>
<path transform="translate(773,300)" d="m0 0 2 1-3 3-11 8-11 10-4 3h-3v-2l20-16z" fill="#d6282800"/>
<path transform="translate(35,883)" d="m0 0 4 3 56 1v1h-63l2-4z" fill="#e76f5100"/>
<path transform="translate(673,852)" d="m0 0 2 1-9 6-17 10-11 4-3-1 23-11z" fill="#d6282800"/>
<path transform="translate(720,809)" d="m0 0 2 1-9 11-6 5-9 9-2-1 17-17 3-4h2z" fill="#e76f5100"/>
<path transform="translate(683,843)" d="m0 0m3 0 2 1-11 8-7 3-8 5-3-1 18-11 6-4z" fill="#d6282800"/>
<path transform="translate(741,325)" d="m0 0 4 1-13 11-5 4-2-1 6-7z" fill="#d6282800"/>
<path transform="translate(478,557)" d="m0 0v3l-13 17-4 4 2-5 9-12z" fill="#00b4d800"/>
<path transform="translate(728,335)" d="m0 0m-1 1m-1 1v3l-4 5-7 5-3-1 9-8h2v-2z" fill="#d6282800"/>
<path transform="translate(606,357)" d="m0 0 4 2 11 9 6 7-4-2-10-9-7-6z" fill="#00b4d800"/>
<path transform="translate(711,349)" d="m0 0 3 2-11 9h-3l6-7z" fill="#d6282800"/>
<path transform="translate(773,300)" d="m0 0 2 1-3 3-11 8-2 1 2-4 10-8z" fill="#d6282800"/>
<path transform="translate(489,542)" d="m0 0 1 3-5 6-4 2 2-5z" fill="#d6282800"/>
<path transform="translate(863,219)" d="m0 0 3 2-11 9-2-1z" fill="#d6282800"/>
<path transform="translate(648,866)" d="m0 0h2l-1 3-11 4-3-1z" fill="#00b4d800"/>
<path transform="translate(890,66)" d="m0 0 3 4-6 2-5 4 2-4 5-5z" fill="#d6282800"/>
</svg>