<?xml version="1.0" encoding="UTF-8"?>
<svg version="1.1" viewBox="0 0 2048 1488" width="1000" height="727" xmlns="http://www.w3.org/2000/svg">
<path transform="translate(1317,412)" d="m0 0h2v669h-118v-333l-11 14-14 18-12 15-22 28-13 16-11 14-20 25-11 14-8 10-13 16-10 13-12 15-10 13-8 10-4 2-14-18-11-14-12-15-11-14-12-15-1-2-4 2-12 16-13 16-11 14-13 16-10 13-9 11-13 16-7 9-22 28-12 15-11 14-13 16-10 13-9 11-14 18-14 17-11 14-16 20-13 16-10 13-11 14-12 15-11 14-13 16-10 13-13 16-9 11-5-1-11-8 2-5 11-14 14-17 13-17 11-13 10-13 11-14 9-11 12-15 7-9 13-16 11-14 8-10 9-11 8-10 10-13 13-16 11-14 20-25 11-14 8-10 9-11 11-14 10-13 10-12 10-13 13-16 11-14 10-13 10-12 11-14 11-13 10-13 13-16 22-28 13-16 16-20 10-13 13-16 9-11 10-13 13-16 11-14 16-20 13-16 8-11 6-7 8-10 14-18 10-12 33-42 13-16 10-13 9-11 11-14 13-16 8-10 11-14 16-20 9-12 10-13z" fill="#1B1B1C"/>
<path transform="translate(1414,187)" d="m0 0 7 4 7 5-1 6-11 13-22 28-13 16-13 17-11 13-13 17-11 13-21 27-8 10-9 11-22 28-14 17-10 13-13 16-11 14-13 16-10 13-11 14-11 13-10 13-11 14-13 16-11 14-20 25-11 14-13 16-13 17-11 13-10 13-11 14-13 16-12 15-11 14-13 16-8 10-11 14-14 17-7 9-11 14-13 16-13 18-4-2-12-15-13-17-11-13-10-13-11-14-12-16-2-1 1 39v144l-11 14-14 17-13 17-11 13-13 17-14 17-11 14-12 16-9 11-7 9h-4l1-333v-328l4 2 11 14 10 13 14 18 11 14 9 11 14 18 9 11 22 28 14 17 12 16 11 13 22 28 14 17 13 17 9 11 12 15 10 13 14 17 12 16 5 7 4-5 8-9 10-13 14-18 10-12 13-17 18-22 8-10 10-13 14-17 10-13 11-14 14-17 9-12 13-16 12-15 6-8 10-12 13-17 11-13 9-12 12-15 11-14 13-16 11-14 14-17 10-13 9-11 12-15 10-13 11-13 12-16 9-11 13-16 13-17 9-11 13-16 8-11 10-12 5-7z" fill="#1B1B1C"/>
</svg>
